<svg xmlns="http://www.w3.org/2000/svg" viewBox="0 0 1205.52 182.25"><defs><style>.cls-1{fill:#113356;}</style></defs><title>Fichier 28</title><g id="Calque_2" data-name="Calque 2"><g id="Calque_1-2" data-name="Calque 1"><path class="cls-1" d="M284.11,23.45V44.32a.87.87,0,0,1-.87.88H237.76a.87.87,0,0,0-.87.87V68.76a.87.87,0,0,0,.87.88h33.59a.87.87,0,0,1,.87.87V90.72a.87.87,0,0,1-.87.88H237.76a.87.87,0,0,0-.87.87v45.15a.89.89,0,0,1-.88.88H209.52a.88.88,0,0,1-.87-.88V23.45a.88.88,0,0,1,.87-.88h73.72A.88.88,0,0,1,284.11,23.45Z"/><path class="cls-1" d="M327.21,17.17V137.62a.88.88,0,0,1-.87.88H299.85a.88.88,0,0,1-.88-.88V17.17a.87.87,0,0,1,.88-.87h26.49A.87.87,0,0,1,327.21,17.17Z"/><path class="cls-1" d="M441.29,47.57,384.24,181.72a.86.86,0,0,1-.8.53H355a.87.87,0,0,1-.79-1.23l20.42-45.31a.9.9,0,0,0,0-.7L337.79,47.57a.88.88,0,0,1,.81-1.22h29.61a.87.87,0,0,1,.82.57l20.27,54.84a.87.87,0,0,0,1.64,0l20.11-54.83a.87.87,0,0,1,.82-.58h28.62A.87.87,0,0,1,441.29,47.57Z"/><path class="cls-1" d="M587.45,23.45V137.62a.88.88,0,0,1-.87.88H560.09a.88.88,0,0,1-.88-.88v-46a.87.87,0,0,0-.87-.88H516.16a.87.87,0,0,0-.87.88v46a.88.88,0,0,1-.88.88H487.93a.88.88,0,0,1-.88-.88V23.45a.88.88,0,0,1,.88-.88h26.48a.88.88,0,0,1,.88.88V67.11a.88.88,0,0,0,.87.88h42.18a.88.88,0,0,0,.87-.88V23.45a.88.88,0,0,1,.88-.88h26.49A.88.88,0,0,1,587.45,23.45Z"/><path class="cls-1" d="M625.34,134a42.29,42.29,0,0,1-17-16.52q-6.2-10.72-6.2-25.1,0-14.19,6.28-25a42.64,42.64,0,0,1,17.17-16.6,54.56,54.56,0,0,1,48.88,0,42.58,42.58,0,0,1,17.17,16.6q6.29,10.82,6.28,25t-6.36,25A43.07,43.07,0,0,1,674.22,134a51.85,51.85,0,0,1-24.52,5.78A50.9,50.9,0,0,1,625.34,134Zm38.15-24.61q5.7-5.94,5.7-17t-5.54-17a18.75,18.75,0,0,0-27.32-.09q-5.46,5.86-5.45,17.09,0,11.07,5.36,17a17.36,17.36,0,0,0,13.46,5.95A18.39,18.39,0,0,0,663.49,109.43Z"/><path class="cls-1" d="M753.57,49.74a31.81,31.81,0,0,1,15.61-4.37.89.89,0,0,1,.9.88V74.38a.87.87,0,0,1-.87.87h-6.89q-10.58,0-15.85,4.54t-5.29,15.94v41.89a.88.88,0,0,1-.87.88H713.82a.89.89,0,0,1-.88-.88V47.23a.89.89,0,0,1,.88-.88h26.49a.88.88,0,0,1,.87.88V58.94a.88.88,0,0,0,1.58.52A36.66,36.66,0,0,1,753.57,49.74Z"/><path class="cls-1" d="M785.68,32.4A14.2,14.2,0,0,1,781,21.58a14.39,14.39,0,0,1,4.7-11,17.16,17.16,0,0,1,12.14-4.37,16.92,16.92,0,0,1,12,4.37,14.37,14.37,0,0,1,4.71,11,14.18,14.18,0,0,1-4.71,10.82,16.89,16.89,0,0,1-12,4.38A17.12,17.12,0,0,1,785.68,32.4Zm26.18,14.83v90.39a.89.89,0,0,1-.88.88H784.49a.88.88,0,0,1-.87-.88V47.23a.88.88,0,0,1,.87-.88H811A.89.89,0,0,1,811.86,47.23Z"/><path class="cls-1" d="M860.63,115.21h37.21a.87.87,0,0,1,.87.88v21.53a.88.88,0,0,1-.87.88H828.09a.88.88,0,0,1-.88-.88V116.35a.85.85,0,0,1,.2-.55l36.93-44.73a.87.87,0,0,0-.67-1.43H828.42a.87.87,0,0,1-.88-.88V47.23a.88.88,0,0,1,.88-.88H897a.88.88,0,0,1,.88.88V68.49a.91.91,0,0,1-.21.57L860,113.77A.88.88,0,0,0,860.63,115.21Z"/><path class="cls-1" d="M931.82,134a42.37,42.37,0,0,1-17-16.52q-6.19-10.72-6.19-25.1,0-14.19,6.27-25a42.67,42.67,0,0,1,17.18-16.6,54.54,54.54,0,0,1,48.87,0,42.67,42.67,0,0,1,17.18,16.6q6.27,10.82,6.27,25t-6.35,25A43.07,43.07,0,0,1,980.7,134a51.91,51.91,0,0,1-24.52,5.78A50.9,50.9,0,0,1,931.82,134ZM970,109.43q5.7-5.94,5.7-17t-5.53-17a18.76,18.76,0,0,0-27.33-.09q-5.44,5.86-5.45,17.09,0,11.07,5.37,17a17.34,17.34,0,0,0,13.46,5.95A18.35,18.35,0,0,0,970,109.43Z"/><path class="cls-1" d="M1101.41,55.85q9.66,10.49,9.66,28.81v53a.89.89,0,0,1-.88.88h-26.32a.88.88,0,0,1-.88-.88V88.46q0-9.24-4.79-14.37T1065.32,69q-8.08,0-12.88,5.11t-4.78,14.37v49.16a.89.89,0,0,1-.88.88h-26.49a.88.88,0,0,1-.87-.88V47.23a.88.88,0,0,1,.87-.88h26.49a.89.89,0,0,1,.88.88V56a.87.87,0,0,0,1.54.56,30.27,30.27,0,0,1,10-7.67,36.88,36.88,0,0,1,16.35-3.55Q1091.74,45.36,1101.41,55.85Z"/><path class="cls-1" d="M1146.73,135.69a36.64,36.64,0,0,1-14.86-11.31,29.61,29.61,0,0,1-6-15.14.87.87,0,0,1,.87-1h27a10.7,10.7,0,0,0,4.46,7.76,15.76,15.76,0,0,0,9.74,3c3.52,0,6.25-.69,8.17-2.06a6.33,6.33,0,0,0,2.89-5.37c0-2.64-1.37-4.6-4.13-5.86a82.86,82.86,0,0,0-13.37-4.21,125.94,125.94,0,0,1-16.51-4.87,28.52,28.52,0,0,1-11.4-8.1q-4.79-5.52-4.79-14.94a25.38,25.38,0,0,1,4.38-14.45A29.39,29.39,0,0,1,1146,48.83q8.51-3.8,20.23-3.8,17.34,0,27.33,8.59,9.63,8.28,11.36,21.8a.89.89,0,0,1-.88,1h-25.1a11.24,11.24,0,0,0-4.21-7.6,14.63,14.63,0,0,0-9.33-2.81c-3.3,0-5.83.64-7.59,1.9a6.05,6.05,0,0,0-2.65,5.2c0,2.65,1.41,4.63,4.21,6a67.68,67.68,0,0,0,13.13,4,144.17,144.17,0,0,1,16.68,5.2,28.83,28.83,0,0,1,11.31,8.26q4.88,5.7,5,15.27a24.27,24.27,0,0,1-4.54,14.45,30,30,0,0,1-13,10,49.93,49.93,0,0,1-19.73,3.64A53,53,0,0,1,1146.73,135.69Z"/><rect class="cls-1" x="65.82" y="114.12" width="32.31" height="7.98" rx="0.33"/><rect class="cls-1" x="73.89" y="97.93" width="16.12" height="7.99" rx="0.33"/><rect class="cls-1" x="73.92" y="130.32" width="16.06" height="8.03" rx="0.33"/><path class="cls-1" d="M127,0H36A36,36,0,0,0,0,36V127a36,36,0,0,0,36,36H127a36,36,0,0,0,36-36V36A36,36,0,0,0,127,0Zm-45,146.45A64.77,64.77,0,1,1,146.71,83,64.8,64.8,0,0,1,81.92,146.45Z"/><path class="cls-1" d="M114,35l-.47.12-3.62,6.26a.34.34,0,0,1-.45.12L103,37.76l-.12-.45c1.27-2.22,2.52-4.38,3.75-6.54-.1-.08-.13-.13-.18-.15a55,55,0,0,0-16-5,.86.86,0,0,0-1,.59q-3.47,7-7,14l-.21.4h-.58l-.18-.33c-2.31-4.63-4.65-9.25-6.92-13.9a1.09,1.09,0,0,0-1.37-.69,56.53,56.53,0,0,0-11.92,3.24c-1.25.5-2.47,1.07-3.73,1.62a.33.33,0,0,0-.15.47c1.24,2.15,2.42,4.2,3.62,6.3l-.12.45-6.46,3.72L54,41.36c-1.22-2.1-2.42-4.18-3.63-6.28L49.87,35A59.29,59.29,0,0,0,35.25,49.61l.11.48,6.26,3.62.12.45L38,60.62l-.45.12L31.3,57.13l-.47.15a56.71,56.71,0,0,0-5.55,24.09.32.32,0,0,0,.33.33H73.48a.33.33,0,0,1,.33.3,8.21,8.21,0,0,0,8,7.77,7.84,7.84,0,0,0,5-1.68A8.12,8.12,0,0,0,90.05,82a.35.35,0,0,1,.33-.32H138.3a.33.33,0,0,0,.33-.33,57,57,0,0,0-5.56-24,.34.34,0,0,0-.47-.15l-6.28,3.61-.45-.12-3.71-6.46.12-.46,6.25-3.6a.34.34,0,0,0,.12-.46C125.78,45,118.92,38.17,114,35ZM90,73.52H73.87v-8H90Zm8.12-16.17H65.82v-8H98.11Z"/></g></g></svg>