<svg xmlns="http://www.w3.org/2000/svg" viewBox="0 0 1205.52 182.25"><defs><style>.cls-1{fill:#0b2238;}</style></defs><title>Fichier 16</title><g id="Calque_2" data-name="Calque 2"><g id="Calque_1-2" data-name="Calque 1"><path class="cls-1" d="M284.11,22.57V45.2H236.89V69.64h35.33v22H236.89v46.9H208.65V22.57Z"/><path class="cls-1" d="M327.21,16.3V138.5H299V16.3Z"/><path class="cls-1" d="M441.81,46.35,384,182.25H353.63l21.14-46.89-37.49-89h31.54L390.12,104l21.14-57.63Z"/><path class="cls-1" d="M587.45,22.57V138.5H559.21V90.77H515.29V138.5H487.05V22.57h28.24V68h43.92V22.57Z"/><path class="cls-1" d="M625.34,134a42.29,42.29,0,0,1-17-16.52q-6.2-10.72-6.2-25.1,0-14.19,6.28-25a42.64,42.64,0,0,1,17.17-16.6,54.56,54.56,0,0,1,48.88,0,42.58,42.58,0,0,1,17.17,16.6q6.29,10.82,6.28,25t-6.36,25A43.07,43.07,0,0,1,674.22,134a51.85,51.85,0,0,1-24.52,5.78A50.9,50.9,0,0,1,625.34,134Zm38.15-24.61q5.7-5.94,5.7-17t-5.54-17a18.75,18.75,0,0,0-27.32-.09q-5.46,5.86-5.45,17.09,0,11.07,5.36,17a17.36,17.36,0,0,0,13.46,5.95A18.39,18.39,0,0,0,663.49,109.43Z"/><path class="cls-1" d="M753.57,49.74a31.88,31.88,0,0,1,16.51-4.38V75.25h-7.76q-10.58,0-15.85,4.54t-5.29,15.94V138.5H712.94V46.35h28.24V61.71A37.24,37.24,0,0,1,753.57,49.74Z"/><path class="cls-1" d="M785.68,32.4A14.17,14.17,0,0,1,781,21.58a14.36,14.36,0,0,1,4.7-11,17.16,17.16,0,0,1,12.14-4.37,16.92,16.92,0,0,1,12,4.37,14.37,14.37,0,0,1,4.71,11,14.18,14.18,0,0,1-4.71,10.82,16.89,16.89,0,0,1-12,4.38A17.12,17.12,0,0,1,785.68,32.4Zm26.18,14V138.5H783.62V46.35Z"/><path class="cls-1" d="M858.75,115.21h40V138.5h-71.5V116l38.31-46.4h-38V46.35h70.35V68.81Z"/><path class="cls-1" d="M931.82,134a42.37,42.37,0,0,1-17-16.52q-6.19-10.72-6.19-25.1,0-14.19,6.27-25a42.67,42.67,0,0,1,17.18-16.6,54.54,54.54,0,0,1,48.87,0,42.67,42.67,0,0,1,17.18,16.6q6.27,10.82,6.27,25t-6.35,25A43.07,43.07,0,0,1,980.7,134a51.91,51.91,0,0,1-24.52,5.78A50.9,50.9,0,0,1,931.82,134ZM970,109.43q5.7-5.94,5.7-17t-5.53-17a18.76,18.76,0,0,0-27.33-.09q-5.44,5.86-5.45,17.09,0,11.07,5.37,17a17.34,17.34,0,0,0,13.46,5.95A18.35,18.35,0,0,0,970,109.43Z"/><path class="cls-1" d="M1101.41,55.85q9.66,10.49,9.66,28.81V138.5H1083v-50q0-9.24-4.79-14.37T1065.32,69q-8.08,0-12.88,5.11t-4.78,14.37v50h-28.24V46.35h28.24V58.57a29.83,29.83,0,0,1,11.55-9.66,36.88,36.88,0,0,1,16.35-3.55Q1091.74,45.36,1101.41,55.85Z"/><path class="cls-1" d="M1146.73,135.69a36.64,36.64,0,0,1-14.86-11.31,29.79,29.79,0,0,1-6.11-16.1h27.91a10.7,10.7,0,0,0,4.46,7.76,15.76,15.76,0,0,0,9.74,3c3.52,0,6.25-.69,8.17-2.06a6.33,6.33,0,0,0,2.89-5.37c0-2.64-1.37-4.6-4.13-5.86a82.86,82.86,0,0,0-13.37-4.21,124.28,124.28,0,0,1-16.51-4.88,28.4,28.4,0,0,1-11.4-8.09q-4.79-5.52-4.79-14.94a25.38,25.38,0,0,1,4.38-14.45A29.39,29.39,0,0,1,1146,48.83q8.51-3.8,20.23-3.8,17.34,0,27.33,8.59T1205,76.41h-26.09a11.24,11.24,0,0,0-4.21-7.6,14.63,14.63,0,0,0-9.33-2.81c-3.3,0-5.83.64-7.59,1.9a6.05,6.05,0,0,0-2.65,5.2c0,2.65,1.41,4.63,4.21,6a67.68,67.68,0,0,0,13.13,4,144.17,144.17,0,0,1,16.68,5.2,28.83,28.83,0,0,1,11.31,8.26q4.88,5.7,5,15.27a24.27,24.27,0,0,1-4.54,14.45,30,30,0,0,1-13,10,49.93,49.93,0,0,1-19.73,3.64A53,53,0,0,1,1146.73,135.69Z"/><rect class="cls-1" x="65.82" y="114.12" width="32.31" height="7.98" rx="0.33"/><rect class="cls-1" x="73.89" y="97.93" width="16.12" height="7.99" rx="0.33"/><rect class="cls-1" x="73.92" y="130.32" width="16.06" height="8.03" rx="0.33"/><path class="cls-1" d="M127,0H36A36,36,0,0,0,0,36V127a36,36,0,0,0,36,36H127a36,36,0,0,0,36-36V36A36,36,0,0,0,127,0Zm-45,146.45A64.77,64.77,0,1,1,146.71,83,64.8,64.8,0,0,1,81.92,146.45Z"/><path class="cls-1" d="M114,35l-.47.12-3.62,6.26a.34.34,0,0,1-.45.12L103,37.76c-.05-.17-.08-.28-.12-.45,1.27-2.22,2.52-4.38,3.75-6.54-.1-.08-.13-.13-.18-.15a55,55,0,0,0-16-5,.86.86,0,0,0-1,.59q-3.47,7-7,14l-.21.4h-.58l-.18-.33c-2.31-4.63-4.65-9.25-6.92-13.9a1.09,1.09,0,0,0-1.37-.69,56.53,56.53,0,0,0-11.92,3.24c-1.25.5-2.47,1.07-3.73,1.62a.33.33,0,0,0-.15.47c1.24,2.15,2.42,4.2,3.62,6.3,0,.17-.07.28-.12.45l-6.46,3.72L54,41.36c-1.22-2.1-2.42-4.18-3.63-6.28L49.87,35A59.29,59.29,0,0,0,35.25,49.61l.11.48,6.26,3.62c.05.17.08.27.12.45L38,60.62l-.45.12L31.3,57.13l-.47.15a56.71,56.71,0,0,0-5.55,24.09.32.32,0,0,0,.33.33H73.48a.33.33,0,0,1,.33.3,8.21,8.21,0,0,0,8,7.77,7.84,7.84,0,0,0,5-1.68A8.12,8.12,0,0,0,90.05,82a.35.35,0,0,1,.33-.32H138.3a.33.33,0,0,0,.33-.33,57,57,0,0,0-5.56-24,.34.34,0,0,0-.47-.15l-6.28,3.61-.45-.12-3.71-6.46c0-.18.07-.28.12-.46l6.25-3.6a.34.34,0,0,0,.12-.46C125.78,45,118.92,38.17,114,35ZM90,73.52H73.87v-8H90Zm8.12-16.17H65.82v-8H98.11Z"/></g></g></svg>