<svg xmlns="http://www.w3.org/2000/svg" viewBox="0 0 3641.22 562.34"><defs><style>.cls-1{fill:#0b2238;}.cls-2{fill:#fbae17;}</style></defs><title>Fichier 26</title><g id="Calque_2" data-name="Calque 2"><g id="Calque_1-2" data-name="Calque 1"><rect class="cls-1" x="224.11" y="392.62" width="110.01" height="27.17" rx="1.12"/><rect class="cls-1" x="251.61" y="337.51" width="54.89" height="27.21" rx="1.12"/><rect class="cls-1" x="251.69" y="447.77" width="54.69" height="27.33" rx="1.12"/><path class="cls-1" d="M432.35,4H122.68A122.67,122.67,0,0,0,0,126.72V436.39A122.67,122.67,0,0,0,122.68,559.06H432.35A122.67,122.67,0,0,0,555,436.39V126.72A122.67,122.67,0,0,0,432.35,4ZM278.94,502.72C157.2,502.56,58.66,404,58.49,282.27,58.33,162.12,154.9,64,274.65,61.66c124.85-2.48,227.4,100.07,224.9,224.92C497.16,406.32,399.1,502.88,278.94,502.72Z"/><path class="cls-1" d="M388.19,123.16l-1.58.39-12.32,21.31a1.14,1.14,0,0,1-1.55.41l-22-12.65-.41-1.54,12.79-22.25a4.53,4.53,0,0,0-.62-.52A186.84,186.84,0,0,0,308,91.39c-1.89-.28-2.75.34-3.57,2q-11.79,23.81-23.72,47.55c-.22.44-.45.87-.7,1.34l-2,0c-.22-.4-.42-.77-.61-1.15-7.89-15.75-15.83-31.48-23.58-47.31-1.12-2.29-2.38-2.69-4.66-2.33a190.55,190.55,0,0,0-40.58,11c-4.25,1.68-8.41,3.62-12.69,5.51a1.13,1.13,0,0,0-.52,1.6l12.33,21.44-.41,1.54-22,12.65-1.55-.41-12.34-21.37-1.64-.36A201.61,201.61,0,0,0,120,173c.15.65.23,1,.37,1.63l21.32,12.32.42,1.55c-4.27,7.42-8.46,14.68-12.66,22l-1.55.41-21.36-12.3-1.6.5a193.37,193.37,0,0,0-18.9,82,1.12,1.12,0,0,0,1.13,1.13h163a1.14,1.14,0,0,1,1.12,1c1.83,18.08,15.83,26.41,27.33,26.46A26.77,26.77,0,0,0,295.81,304a27.72,27.72,0,0,0,10.83-20.8,1.12,1.12,0,0,1,1.11-1.06H470.91A1.12,1.12,0,0,0,472,281a193.74,193.74,0,0,0-18.93-81.89,1.14,1.14,0,0,0-1.6-.5l-21.37,12.29-1.55-.42-12.63-22,.41-1.55,21.28-12.28a1.12,1.12,0,0,0,.39-1.56C428.28,157.37,404.94,134,388.19,123.16ZM306.43,254.37H251.54V227.24h54.89Zm27.63-55.05H224.13V172.08H334.06Z"/><path class="cls-1" d="M865.41,4.23v58H744.35v62.64h90.58v56.3H744.35V301.37H672V4.23Z"/><path class="cls-1" d="M975.88,245.5h94.82v55.87H903.5V4.23h72.38Z"/><path class="cls-1" d="M1360.21,4.23,1257.36,203.17v98.2H1185v-98.2L1082.12,4.23h82.12l57.56,124.44L1278.94,4.23Z"/><path class="cls-1" d="M1736.49,4.23V301.37h-72.38V179H1551.52V301.37h-72.38V4.23h72.38v116.4h112.59V4.23Z"/><path class="cls-1" d="M1852.26,284.86a145.37,145.37,0,0,1-55.45-54.39q-20.54-34.92-20.53-78.51t20.53-78.31a145.89,145.89,0,0,1,55.45-54.18Q1887.18,0,1929.08,0t76.82,19.47a143,143,0,0,1,55,54.18Q2081,108.36,2081,152t-20.32,78.51a144.42,144.42,0,0,1-55,54.39q-34.71,19.49-76.61,19.47T1852.26,284.86ZM1986,214.6q21.38-23.7,21.38-62.64,0-39.38-21.38-62.86t-56.93-23.49q-36,0-57.35,23.28T1850.35,152q0,39.36,21.38,62.85t57.35,23.49Q1964.63,238.3,1986,214.6Z"/><path class="cls-1" d="M2272.78,301.37,2211,189.2h-17.35V301.37h-72.39V4.23h121.49q35.11,0,59.89,12.28t37,33.65q12.27,21.38,12.27,47.61,0,29.64-16.72,52.92t-49.31,33l68.57,117.67ZM2193.63,138h44.86q19.89,0,29.84-9.74t10-27.51q0-16.92-10-26.67t-29.84-9.73h-44.86Z"/><path class="cls-1" d="M2469.6,4.23V301.37h-72.38V4.23Z"/><path class="cls-1" d="M2599.12,242.11H2727v59.26H2517v-55L2644,63.49H2517V4.23H2727v55Z"/><path class="cls-1" d="M2838.06,284.86a145.44,145.44,0,0,1-55.45-54.39q-20.54-34.92-20.53-78.51t20.53-78.31a146,146,0,0,1,55.45-54.18Q2873,0,2914.88,0t76.83,19.47a142.91,142.91,0,0,1,55,54.18q20.1,34.71,20.11,78.31t-20.32,78.51a144.35,144.35,0,0,1-55,54.39q-34.71,19.49-76.61,19.47T2838.06,284.86Zm133.75-70.26q21.38-23.7,21.38-62.64,0-39.38-21.38-62.86t-56.93-23.49q-36,0-57.35,23.28T2836.15,152q0,39.36,21.38,62.85t57.35,23.49Q2950.45,238.3,2971.81,214.6Z"/><path class="cls-1" d="M3372.86,301.37h-72.38L3179.43,118.09V301.37h-72.38V4.23h72.38l121.05,184.13V4.23h72.38Z"/><path class="cls-1" d="M3474.45,293.75q-25.83-10.58-41.27-31.32t-16.3-50h77q1.7,16.52,11.43,25.19t25.39,8.68q16.08,0,25.4-7.41t9.31-20.53a24.32,24.32,0,0,0-7.4-18.2,59.82,59.82,0,0,0-18.21-11.85,295.14,295.14,0,0,0-30.68-10.59q-28.78-8.88-47-17.77a86.73,86.73,0,0,1-31.32-26.25q-13.12-17.34-13.12-45.29,0-41.47,30.05-65T3526.09,0q49.1,0,79.15,23.49t32.17,65.4H3559.1q-.84-14.39-10.58-22.65t-25-8.25q-13.12,0-21.16,7t-8,20.11q0,14.39,13.55,22.43t42.32,17.35q28.78,9.75,46.78,18.63a89.21,89.21,0,0,1,31.11,25.82q13.11,16.94,13.12,43.6A85.57,85.57,0,0,1,3628.31,259q-12.92,20.74-37.46,33t-58,12.27Q3500.27,304.33,3474.45,293.75Z"/><path class="cls-2" d="M679.65,558q-6.46-3.6-7-7.9T677.49,535q5.38-10.78,16.89-33.41,8.61-16.17,13.11-25.33t6.11-13.11a19.41,19.41,0,0,0,1.61-5,6.23,6.23,0,0,1,.72-5.21,11.27,11.27,0,0,1,4.67-3.41q1.8-1.8,5.93-6.47a63.11,63.11,0,0,0,7.72-11.14q3.24-7.55,7.55-15.45t11.49-19.93q7.19-12,18.68-31.44,7.18-12.57,15.81-25.68t18.32-26.05a73.58,73.58,0,0,1,7.19-8.08c2.15-2,4.31-2.93,6.46-2.7a22,22,0,0,1,9.88,2.88A41.26,41.26,0,0,1,839.87,313a30.22,30.22,0,0,1,6.83,10.06q1.78,2.88,1.43,12.21t-1.43,22.64q-1.08,13.29-2.52,28.38Q843.1,401,841,421.16t-4.13,42q-2,21.92-3.06,42.21a292.68,292.68,0,0,0,0,35.39,25.91,25.91,0,0,1,0,6.1,39.24,39.24,0,0,0-.36,4.67c-1.43,1.44-3.77,2.1-7,2a23.33,23.33,0,0,1-9.34-2.34c-3-1.43-4.73-3.23-5.21-5.39a4.73,4.73,0,0,1-1.26-3,74.6,74.6,0,0,1,.18-8.44q.36-6.47.72-20.48l1.8-58.2-4.67.36q-3.24,0-12.22.72t-19.4,2q-10.43,1.26-19.22,2.51a80.35,80.35,0,0,0-12,2.34q-3.24,0-7.73,4.31A50.25,50.25,0,0,0,729.58,479a37.42,37.42,0,0,1-5.21,10.6c-2.51,3.72-3.77,6.17-3.77,7.37q-2.52,1.8-5.75,6.82,0,2.16-3.41,10.6T703,533.06a158.13,158.13,0,0,1-10.06,17.78l-7.55,11.5ZM754,442.35q7.54-1.43,12.75-2.33a56.31,56.31,0,0,1,9.52-.9q15.09-3.58,21.92-4.85a62,62,0,0,1,9.52-1.26,10.7,10.7,0,0,1,4.85,1.08,7.43,7.43,0,0,0,3.95,2.51c.24-.47.6-3.23,1.08-8.26s1.13-11.25,2-18.68,1.68-15.15,2.52-23.17,1.49-15.45,2-22.28.84-12,1.08-15.62q.36-6.82,1.08-18-2.16,0-9.16,7.91a195.54,195.54,0,0,0-15.63,20.83A280.27,280.27,0,0,0,785.27,387q-3.6,6.83-6.83,12.21c-2.16,3.59-3.83,5.39-5,5.39a59.13,59.13,0,0,0-4.13,6.29q-3.42,5.56-7.37,12.57t-6.46,12.57C753.77,439.78,753.29,441.87,754,442.35Z"/><path class="cls-2" d="M1053.63,553q-4.68,1.08-7.73-1.26a13.37,13.37,0,0,1-4.49-6.64,89.49,89.49,0,0,1-4.13-18.15,79.51,79.51,0,0,1-.54-17.42l.72-7.54-14,11.13q-12.23,10.78-23.53,15.45T980,533.24a26.42,26.42,0,0,1-7.9-2.87,28.06,28.06,0,0,1-7-5.39,28.53,28.53,0,0,1-4.85-6.83q-2.16-5-1.26-13.65a89.28,89.28,0,0,1,4.31-18.86,133.64,133.64,0,0,1,8.63-20.12,84.33,84.33,0,0,1,12-17.42q11.85-18,25.51-21.91t26.94,3.95q9.34,3.94,11.68,3.59t4.13-8.26q1.43-5.75,2.87-11.68t4.67-16q9-27.29,15.63-42.75t12-26.94q4-8.26,6.65-10.24a7.69,7.69,0,0,1,5.57-1.62,10.54,10.54,0,0,1,7.18,2.88,18.77,18.77,0,0,1,5,7.9,11.87,11.87,0,0,1,1.26,5.57,17.27,17.27,0,0,1-2.33,6.29q-4.68,8.63-11,22.81t-12.57,31.07q-6.3,16.89-11.68,33.42t-9,29.09a155.45,155.45,0,0,0-3.77,20.12q-1.62,12.23-2.7,25T1058.83,523q-.18,9.88.54,12.76,2.16,7.18,2,10.77c-.13,2.39-.78,4-2,4.85A12.18,12.18,0,0,1,1053.63,553Zm-60.72-39.88a32.77,32.77,0,0,0,9.88-3.95q4.85-2.87,10.24-6.82,10.79-8.27,18.68-15.09t10.42-20.84c.48-4.55,0-8.2-1.26-11a23.31,23.31,0,0,0-6.29-7.72c-2.87-1.91-6.77-2.69-11.67-2.34s-10,2.94-15.27,7.73q-8.62,7.9-16.7,21.19t-12,32.7a5.34,5.34,0,0,0,2.16,5.74Q983.93,514.92,992.91,513.12Z"/><path class="cls-2" d="M1199.12,532.88a16.38,16.38,0,0,1-2-3.59,9.75,9.75,0,0,1-.9-3.59,11.31,11.31,0,0,0-.18-1.8c-.12-.72-.66-1.08-1.61-1.08q-1.08-1.08,1.61-8.44t7.19-17.06q4.49-9.7,9.34-18.86t8.08-14.55a5,5,0,0,0,2.34-3.06c.36-1.31.3-2-.18-2q3.95-6.83,5-7.91a44.59,44.59,0,0,0,4.31-10.24,19.62,19.62,0,0,0,.72-8.8q-1.44-1.79-5-.36c-1,.24-2.34.67-4.13,1.26a20,20,0,0,0-4.85,2.34q-8.28,5.74-11.14,5.2t-6.47-9.16q-1.44-3.94-1.08-5.74t2.88-4a17.36,17.36,0,0,1,5.39-3.41,15.24,15.24,0,0,0,4-2,41.94,41.94,0,0,1,6.65-3.6,34.11,34.11,0,0,1,4.13-1.43q9.33-2.88,15.8-1.08t9.7,9.34a21.18,21.18,0,0,1,5,13.83q0,7.72-5,17.78l-3.59,5.39c-1.2,2.4-1.38,3.59-.54,3.59s1.85-.83,3.06-2.51a34.94,34.94,0,0,1,4.31-4.31q3.22-2.88,4.31-2.88c1.19-.47,1.79-1.55,1.79-3.23.72-.72,1.92-1.79,3.6-3.23.95,0,2.81-1.14,5.56-3.42s6-5,9.88-8.08c2.64-1.91,5-2.87,7.19-2.87q8.27-2.51,13.47,5.39t5.21,20.47l-7.54,19.4,12.93-15.8a36.48,36.48,0,0,1,4.49-5q2.33-2.16,4.13-3.6a4.55,4.55,0,0,1,3.59-3.23c1-.23,1.44-.72,1.44-1.44a34.57,34.57,0,0,1,4-2.69,7.08,7.08,0,0,0,2.88-2.69q6.11-2.52,11.13-.9t8.62,9.16a19.92,19.92,0,0,1,2.88,7.54,95.65,95.65,0,0,1,.36,9.7c-.48,3.59-.9,6.41-1.26,8.44s-.66,4.14-.9,6.29-.6,5.15-1.08,9a15.4,15.4,0,0,0-1.61,6.11c-.13,2.16-.18,4.19-.18,6.11a34.93,34.93,0,0,0,.36,6.28c.23,1.08,1.19,1.62,2.87,1.62a69.79,69.79,0,0,0,13.83-5.21q8.81-4.12,13.12-8.08,5.38-5,9.52-5.21t5.21,4.13q.71,1.44-2.34,6.47a88.51,88.51,0,0,1-6.83,9.7c-2.51,3.11-4.37,4.67-5.56,4.67-.72,0-1.56.66-2.52,2a11.21,11.21,0,0,1-3.23,3.06c-1.68,1.68-3.3,3.23-4.85,4.67a7.54,7.54,0,0,1-5.21,2.15,8.62,8.62,0,0,0-3.41.9,10.75,10.75,0,0,1-4.49.9q-3.6,1.08-11-1.08t-9.52-10.06A71.61,71.61,0,0,1,1330.6,488a79.34,79.34,0,0,0,1.8-11.86c.23-3.59.72-6.11,1.44-7.54v-5.21c0-2.75-.36-4.13-1.08-4.13-1,0-3.18,1.74-6.65,5.2s-7.54,7.85-12.21,13.12-9.29,10.77-13.83,16.52a179.82,179.82,0,0,0-11.14,15.45,41.3,41.3,0,0,0-5.75,9.7c-1.68,3.83-2.87,6-3.59,6.47-1.68,1.92-3.66,2.15-5.93.72a20.62,20.62,0,0,1-6.29-6.83,16.79,16.79,0,0,1-1.43-3.77,12.73,12.73,0,0,1,.18-4.67,75.43,75.43,0,0,1,2.51-9.16q2-6.11,5.57-17.25,3.94-12.21,10.06-32,0-1.44-5.39,2.69T1266.3,465.7q-3.24,4-10.78,11.86t-16.53,18q-9,10.07-17.24,21.2-10.43,14.73-14.55,18C1204.44,536.83,1201.75,536.24,1199.12,532.88Z"/><path class="cls-2" d="M1501.25,534.68a16.47,16.47,0,0,1-4.14-7.19,23.27,23.27,0,0,1-.89-8.62,19.52,19.52,0,0,1,1.79-7.18,9.27,9.27,0,0,1,.9-4.49,4.13,4.13,0,0,0,.54-3.06q-.36-1.42.72-5c.72-2.39,1.44-4.67,2.15-6.82q2.52-5.75,5.39-13.83t5.39-16q2.51-7.91,4.31-13.65t2.16-7.19c0-2.87,1.91-4.43,5.75-4.67,2.87-.95,5-1,6.46-.18s3.35,3.18,5.75,7q2.87,2.88,2.16,8.62T1535,466.78a85.32,85.32,0,0,0-3.42,8.26,54.83,54.83,0,0,0-2.69,9.7q-1.44,2.88-3.41,8.09t-3.42,9.88a32.43,32.43,0,0,0-1.43,5.2c-.49,2.28-1.08,4.67-1.8,7.19a26.37,26.37,0,0,1-2.87,6.65q-3.24,14.73-5.93,17.24T1501.25,534.68Zm34.84-145.86a15.92,15.92,0,0,1-3.23-5.21,23.79,23.79,0,0,1-1.8-6.46c-.24-2,0-3.06.72-3.06q2.88-.34,6.83-6.1t3.23-10.06a4.1,4.1,0,0,1,1.08-2.7,4.85,4.85,0,0,1,2.51-1.61q4.32-2.88,8.45-.9t7.72,7.72c2.16,4.55,2.75,8.33,1.8,11.32s-3.6,7.13-7.91,12.39q-5.38,7.2-9.88,7.91T1536.09,388.82Z"/><path class="cls-2" d="M1670.09,530.37c-1,0-2.33-.66-4.13-2a34.76,34.76,0,0,1-4.13-3.41,12.27,12.27,0,0,1-3-5.75q-.54-2.87-.54-12.93a76.47,76.47,0,0,1,4.67-25q4.66-13.47,15.8-37.9l11.86-25.15a20.74,20.74,0,0,1,2.69-4.31c.84-1,1.62-1.91,2.34-2.87h3.59c1.92,0,3.83,1.14,5.75,3.41a24.51,24.51,0,0,1,4.31,7.36,39.82,39.82,0,0,1-1.26,9.7q-1.26,5-8.8,15.09a110.62,110.62,0,0,0-6.64,13.29,83.43,83.43,0,0,0-5.57,16.17,14.58,14.58,0,0,0-1.44,3.05q-1.08,2.7-2.34,5.93c-.84,2.16-1.74,4.19-2.69,6.11l-1.8,7.9,24.07-24.79q16.89-16.87,27.31-24.07t16.52-6.1q6.11,1.08,10.42,9.7a47.44,47.44,0,0,1,3.77,7,26.63,26.63,0,0,1,1.62,8.09,92.53,92.53,0,0,1-.72,15.08V506.3a82.49,82.49,0,0,0,8.62-2.7c2.16-.83,4.43-1.73,6.83-2.69a61.58,61.58,0,0,1,7.54-2.7,49.56,49.56,0,0,1,10.78-1.61,24.59,24.59,0,0,1-3.23,9.88,50.54,50.54,0,0,1-7.19,9.88,37.67,37.67,0,0,1-9.52,7.54,21.06,21.06,0,0,1-10.24,2.87c-3.11,0-6.59-1.55-10.41-4.67a22.92,22.92,0,0,1-9.88-19c-.13-3.11-.18-8.85-.18-17.24V472.53q0-5.75-3.42-3.41c-2.28,1.56-4.13,2.93-5.56,4.13q-5.4,4.67-11.32,10.77t-12,12.58Q1696,513.83,1685,522.1T1670.09,530.37Z"/><path class="cls-2" d="M1920.85,535q-5.38-.72-9.16-7.73a36.88,36.88,0,0,1-4.49-12.75c.23-1.91.53-4.67.89-8.26s.78-7.31,1.26-11.14q1.44-6.82,4-16.7t5.21-19.94q2.7-10.06,4.85-17.25a79.71,79.71,0,0,1,2.88-8.62c1.19-1.91,3.11-2.39,5.74-1.44a15.39,15.39,0,0,1,6.47,4.32,14.4,14.4,0,0,1,2.7,6.82c.35,2.64,0,6.47-1.08,11.5s-3.06,12.45-5.93,22.27q-4,14.37-5.93,23.17a71.44,71.44,0,0,0-1.61,18.5q-1.44,12.23-2.16,14.91A2.92,2.92,0,0,1,1920.85,535Zm41.31-143.34a3.66,3.66,0,0,1-2.69.9,13,13,0,0,1-4.13-2q-2.52-.36-6.29-3.41a41.21,41.21,0,0,1-6.47-6.47q-2.68-3.4-2.69-4.13a36.57,36.57,0,0,1,.54-9.16,26,26,0,0,1,3.77-10.06,10.1,10.1,0,0,1,8.26-4.85,8,8,0,0,1,2.52.36c.71.24,2.87,1.08,6.46,2.51q2.88,5.4,5.75,12a28.5,28.5,0,0,1,2.52,12.93Q1969.34,386.67,1962.16,391.7Z"/><path class="cls-2" d="M2080.35,547.61a55.05,55.05,0,0,1-12.93-7.72q-6.11-4.86-7.9-8.09c0-2.15.36-3.64,1.07-4.49s2.82-1.19,6.29-1.07,9.16.66,17.07,1.61a97.9,97.9,0,0,0,10.77-.72,85.11,85.11,0,0,0,12-2.15c3.71-1,5.8-2.16,6.29-3.59,1.19,0,1.43-.42.71-1.26s-1.56-1.74-2.51-2.7a5.77,5.77,0,0,1-3.23-1.25,5.87,5.87,0,0,0-3.24-1.26c0-1.2-1.14-2.57-3.41-4.13a36.18,36.18,0,0,0-7-3.77q-7.91-6.47-13.65-11.68t-4.31-7v-1.79q-2.52,0-5.57-7.19a33.6,33.6,0,0,1-3-12.93q0-4.31,2.51-11a87.83,87.83,0,0,1,6.83-13.83,61.11,61.11,0,0,1,9-11.85,160.77,160.77,0,0,1,16.17-13.12q9.69-7,19.22-12.57t16-7.36a33.29,33.29,0,0,1,12-2.52,19.23,19.23,0,0,1,9.88,2.52,22.33,22.33,0,0,1,6.64,5.21,66.91,66.91,0,0,1,5.39,6.82,22,22,0,0,1,3.06,5.93,70,70,0,0,1-.72,9.52,55.21,55.21,0,0,1-2,9.16c-.84,2.64-2.1,3.95-3.77,3.95a2,2,0,0,0-1.8,2.16q0,3.58-5.38,8.26-6.84,4.67-11.86,5.57c-3.36.6-5.39-.66-6.11-3.77a9,9,0,0,1-1.43-2.52,1.68,1.68,0,0,0-1.8-1.08,6.5,6.5,0,0,1-2.16-4.67q0-1.42,2.16-3.95c1.2,0,2.75-1.37,4.67-4.13a66.17,66.17,0,0,0,5.21-9q2.32-4.84,2.33-6.65c0-1.43-.18-2.27-.53-2.51a8.81,8.81,0,0,0-3.42-.36q-5,2.16-12.21,5.75t-13.47,7a40.55,40.55,0,0,0-9.16,6.29c-1,1.68-1.57,2.69-1.8,3s-.84.54-1.8.54c0-.95-.78-.54-2.33,1.26s-3.48,4.25-5.75,7.36-4.44,6.17-6.47,9.16-3.53,5.21-4.49,6.65c-.48.48-1,1.86-1.61,4.13a24.38,24.38,0,0,0-.9,6.29q-1.44,4.31.36,5.93t7.9,6.64q12.57,9.35,19.76,15.45a124.67,124.67,0,0,1,10.78,10.06c2.39,2.64,3.82,5,4.31,7.18q6.47,10.79,3.95,16.53T2122.74,544q-3.59,1.8-11.85,2.87a155.29,155.29,0,0,1-16.88,1.26A88.33,88.33,0,0,1,2080.35,547.61Z"/><path class="cls-2" d="M2314.22,545.46A33.41,33.41,0,0,1,2306,542a69.74,69.74,0,0,1-8.62-6.64,60.91,60.91,0,0,1-6.65-10.78,36.69,36.69,0,0,1-3.05-11.68,161.27,161.27,0,0,1-.72-17.06,77.81,77.81,0,0,1,1.61-12.93q1.62-8.62,4-18.15t4.31-17.06q2-7.55,2.33-9.7,1.08-4.67-3.59-5.39a55.59,55.59,0,0,0-10.24-.54c-3.71.13-6.17-.18-7.36-.9a1.91,1.91,0,0,1-1.44-2.15,7.24,7.24,0,0,0-.18-2,16.74,16.74,0,0,0-1.26-2.33q-.72-1.44.9-4.13a7.69,7.69,0,0,1,5.57-3.42,78.94,78.94,0,0,1,8.8-1.25,49.48,49.48,0,0,0,11.32-2.52,20.5,20.5,0,0,0,9.34-6.29q3.23-7.89,7.54-17.6t8.44-17.42a82.51,82.51,0,0,1,5.57-9.52q6.11-3.24,9-2.7t6.47,6.29c1.2,1.68,2.09,3,2.69,3.95s.66,2.4.18,4.31a51,51,0,0,1-3.77,9q-3,6.12-9.16,17.61-1.8,3.58-4.67,9a19.09,19.09,0,0,0,4.31.36c1.92,0,4.31-.12,7.19-.36q3.94-.72,10.06-1.26a35.61,35.61,0,0,1,9.7.18q8.25,0,12.21,3.05t4.31,10.24q.72,4-1.61,4.67c-1.57.49-5.57.72-12,.72-2.16,0-5.51.13-10.06.36l-14.19.72q-7.36.36-12.57.9c-3.48.36-5.21.78-5.21,1.25-.72.49-1.86,2.76-3.42,6.83s-3.11,8.68-4.67,13.83-2.93,9.76-4.13,13.83q-2.51,12.23-3.77,24.43a118.07,118.07,0,0,0-.54,21.2q.72,9,4,12.57,3.24,3.24,12.58,1.26t15.09-6.65q6.47-5.39,10.59-5.39t4.67,3.78c.36,2.51-1,6.05-4.13,10.59a45.68,45.68,0,0,1-10.77,11.32,41.2,41.2,0,0,1-13.48,6.83A23.44,23.44,0,0,1,2314.22,545.46Z"/><path class="cls-2" d="M2494.56,537.91c-1.2,2.4-2.93,3.12-5.21,2.16a33.77,33.77,0,0,1-5.57-2.88,6.68,6.68,0,0,1-4.31-1.43,7.71,7.71,0,0,1-2.51-4.31,12.05,12.05,0,0,1-.36-5.21,41.23,41.23,0,0,1,1.62-7.19q1.25-4.12,2.69-9.16,2.87-11.85,4-17.24t2.16-9.34q1.08-4,2.87-11.5a119.78,119.78,0,0,0,4.67-14,64.5,64.5,0,0,1,5.39-13.65,125.82,125.82,0,0,1,13.65-32,18.21,18.21,0,0,1,2.7-2.87,5.54,5.54,0,0,1,3.41-1.8q2.86-2.87,5.21-2.33a16.67,16.67,0,0,1,5.93,3.41,12.56,12.56,0,0,1,3.41,10.78q-.9,6.11-8.8,18-4.32,11.15-7.91,19.22a73.66,73.66,0,0,0-5,15.27,75.1,75.1,0,0,1,8.81-10.6l8.08-8.08a101.92,101.92,0,0,1,13.11-11.5q5.2-3.58,12.4-8.26,4.3-2.87,8.26-5.21a30.14,30.14,0,0,1,8.8-3.41,26.23,26.23,0,0,1,10.6,0,6.78,6.78,0,0,1,5.93,2.15,18.61,18.61,0,0,1,3.77,6.83,40.15,40.15,0,0,1,1.79,10.06q-8.27-1.8-14.72.54a44.37,44.37,0,0,0-11,5.57q-4.5,3.23-7,5-5.39,3.6-13.65,9.52a133.89,133.89,0,0,0-16.52,14.2q-6.48,7.19-11,12.21a91.22,91.22,0,0,0-7.19,9,33.79,33.79,0,0,0-4.13,8.26q-3.6,8.28-7.54,18T2494.56,537.91Z"/><path class="cls-2" d="M2716.57,534.32a16.6,16.6,0,0,1-9.34-1.44,26.35,26.35,0,0,1-8.8-6.11,18.57,18.57,0,0,1-4.85-8.26q-1.44-7.54,2-18.86a139.3,139.3,0,0,1,10.06-24.07A208.89,208.89,0,0,1,2720.71,451a145.38,145.38,0,0,1,17.6-20.65q9.17-8.81,17.06-12a39.21,39.21,0,0,1,6.29-3.41,8,8,0,0,1,5-.18,43.46,43.46,0,0,1,8.08,3.59,25.6,25.6,0,0,1,7.55,3.23q2.5,1.82,6.46,7.19a50.34,50.34,0,0,1,4.31,10.78,120.48,120.48,0,0,1,2.52,12.21q2.86,9,2.15,11.68a9.12,9.12,0,0,1-2.15,4.13c-1.92,2.4-2.4,3.59-1.44,3.59a14.25,14.25,0,0,1-1.79,5,104.52,104.52,0,0,0-3.78,16.35q-1.26,8.44.18,13.83,2.88,7.9,10.42,9.34t15.45-6.47q3.95-2.87,7.54-5.21c2.39-1.55,3.6-1.37,3.6.54a6.21,6.21,0,0,0,3.59,1.8,2.23,2.23,0,0,1,2.33,1.43,6.66,6.66,0,0,1,0,3.78,17.76,17.76,0,0,1-2.33,5.21q-5.39,5.38-5.39,7.18-2.52,2.52-5.39,5-6.46,4-16.34,4t-15.27-4a40.86,40.86,0,0,1-9.88-10.78,44.68,44.68,0,0,1-5.93-11.85l-1.8-3.59L2759,509.53a103.92,103.92,0,0,1-8.45,7.55c-3,2.39-5,4.07-5.92,5a15.73,15.73,0,0,1-2.34,2.52,4.08,4.08,0,0,1-2.69,1.08H2736c0,1-1.14,2.15-3.41,3.59a34,34,0,0,1-7.9,3.59A26.82,26.82,0,0,1,2716.57,534.32Zm4.14-22.81q5.57-3.42,12.57-8.09a140.72,140.72,0,0,0,12.57-9.34,72.11,72.11,0,0,0,7.73-7.18c1-1,2.51-2.57,4.67-4.85s4.07-4.25,5.74-5.93a52.68,52.68,0,0,0,11.5-20.66q3.24-11.31-.72-17.78c-1-2.63-2.15-4.07-3.59-4.31s-4.43.6-9,2.51q-4.32,2.52-10.6,9.52t-13.29,16.17q-7,9.17-13.11,18.86a178.15,178.15,0,0,0-10.06,18q-4,8.28-4,12.94a6.24,6.24,0,0,0,1.8,3.59C2714.42,514.92,2717,513.79,2720.71,511.51Z"/><path class="cls-2" d="M2958.34,543.66a17.92,17.92,0,0,1-8.08-4.13,37.59,37.59,0,0,1-7.18-7.91,30.24,30.24,0,0,1-4.14-8.08c0-.48-.6-1.44-1.79-2.87q-1.44-1.08-1.62-9.52a152.82,152.82,0,0,1,.9-18.86,137.39,137.39,0,0,1,2.51-16.53q1.8-5.75,5.39-15.63t6.11-17.78l9.7-20.84-14.37-3.95a7.62,7.62,0,0,1-4.13-2.87,6.54,6.54,0,0,1-1.62-3.59c0-1.92,1.08-4.25,3.24-7s3.71-4.13,4.67-4.13a40,40,0,0,0,6.64.36q4.86,0,9.52-.36a34.21,34.21,0,0,0,5.75-.72,13.9,13.9,0,0,0,2.87-2,7.68,7.68,0,0,0,2.16-3.78c1.2-2.63,2.27-5.08,3.23-7.36a68.16,68.16,0,0,1,4-7.73q2.51-4.66,4.13-7.9t5.2-9q1.8-2.5,4-6.11a21.77,21.77,0,0,1,5.39-6.1,9.16,9.16,0,0,1,6.64-2.7q3.42.18,8.8,4.85c1.92,2.4,3,4.19,3.24,5.39s-.72,3.47-2.88,6.83a124.3,124.3,0,0,1-6.64,12.21q-3.78,6.12-7,12.21-5.74,7.9-2.15,9t20.11-1.44q10.43-1.8,15.09.9t5.39,8.8q1.08,8.63-1.8,10.42T3023,417.56a111.62,111.62,0,0,1-14.73,1.62q-6.12.18-9,.18c-3.12.24-5.15.36-6.11.36a19.54,19.54,0,0,0-4.31.72,7.24,7.24,0,0,0-4.13,2.33,27.22,27.22,0,0,0-2.69,4.49q-1.44,1.44-4.32,7.55t-7.18,13.29q-5,15.09-8.62,30T2956.19,507q-1.44,9,.36,12.39t9.34,4.13a94.34,94.34,0,0,0,12.75-.18,67.56,67.56,0,0,0,13.83-2l8.27-3.78a79.55,79.55,0,0,0,7.9-4.13q3.22-1.79,9.7-5.75,1.78-2.87,3.95-1.79c1.44.72,2.63,2.51,3.59,5.39a25.12,25.12,0,0,1-1.79,9q-1.8,4.66-13.3,11.14-16.15,10-29.63,12T2958.34,543.66Z"/><path class="cls-2" d="M3143,534.68a16.45,16.45,0,0,1-4.13-7.19,23.49,23.49,0,0,1-.9-8.62,19.72,19.72,0,0,1,1.8-7.18,9.27,9.27,0,0,1,.9-4.49,4.22,4.22,0,0,0,.54-3.06c-.25-.95,0-2.63.71-5s1.44-4.67,2.16-6.82q2.5-5.75,5.39-13.83t5.39-16q2.51-7.91,4.31-13.65t2.15-7.19q0-4.31,5.75-4.67c2.88-.95,5-1,6.47-.18s3.35,3.18,5.75,7q2.86,2.88,2.15,8.62t-4.67,14.37a83.22,83.22,0,0,0-3.41,8.26,54.94,54.94,0,0,0-2.7,9.7c-1,1.92-2.09,4.62-3.41,8.09s-2.46,6.77-3.41,9.88a33.34,33.34,0,0,0-1.44,5.2c-.48,2.28-1.08,4.67-1.79,7.19a26,26,0,0,1-2.88,6.65q-3.22,14.73-5.93,17.24T3143,534.68Zm34.85-145.86a15.92,15.92,0,0,1-3.23-5.21,23.79,23.79,0,0,1-1.8-6.46c-.24-2,0-3.06.72-3.06q2.86-.34,6.82-6.1c2.64-3.83,3.71-7.19,3.24-10.06a4.1,4.1,0,0,1,1.08-2.7,4.81,4.81,0,0,1,2.51-1.61q4.31-2.88,8.44-.9t7.73,7.72q3.22,6.82,1.79,11.32t-7.9,12.39q-5.38,7.2-9.88,7.91T3177.84,388.82Z"/><path class="cls-2" d="M3332.32,532.52c-5,1-8.21,1.26-9.52.9s-3.3-1.73-5.93-4.13a30.38,30.38,0,0,1-9.52-7.19,26.6,26.6,0,0,1-5.39-9.16,19.52,19.52,0,0,1-1.26-8.08,110.34,110.34,0,0,1,6.11-26.94A190.38,190.38,0,0,1,3319,450.25a121.19,121.19,0,0,1,15.63-22.81q8.45-9.51,16.35-12.39a28.23,28.23,0,0,1,13.65-2.16,11.18,11.18,0,0,1,9.34,6.83q5.39,10.42-2.52,13.29a4.92,4.92,0,0,0-2.51.9,2.68,2.68,0,0,0-1.44,2.33c1,.49,3.6.54,7.91.18a85.44,85.44,0,0,0,13.11-2.15c4.43-1.08,7.36-2.21,8.8-3.42a8.42,8.42,0,0,1,3.23-1.07,46.9,46.9,0,0,1,5.39.72c4.07,1.2,6.11,2.63,6.11,4.31a4,4,0,0,0,1.08,2.69,3.22,3.22,0,0,0,2.51,1.26q2.52.36-.54,3.23a99.54,99.54,0,0,1-10.23,7.91q-6.84,4.31-8.45,5.56c-1.08.85-1.26,2.58-.54,5.21q2.88,6.84.36,15.81a61.66,61.66,0,0,1-9,18.32,96.44,96.44,0,0,1-15.63,17.43,105.62,105.62,0,0,1-19.39,13.65A54.53,54.53,0,0,1,3332.32,532.52Zm-6.11-15.8a15.14,15.14,0,0,0,5-1.62q3.59-1.62,5.75-2.7,1.43-1.42,3.77-3.41a10.68,10.68,0,0,1,3.77-2.33,7.55,7.55,0,0,0,3.59-1.26,33,33,0,0,0,6.11-5.39q3.95-4.12,10.42-12.39a93.17,93.17,0,0,0,11.14-14.55q3.95-6.65,2.15-12.4a2.38,2.38,0,0,0-2-1.79,15.9,15.9,0,0,1-4.14-1.8,12,12,0,0,1-6.64-2,78.09,78.09,0,0,1-7-5.2l-5.75-7.19-6.1,6.11q-5.76,5.74-12,17.06a166.35,166.35,0,0,0-10.6,23q-4.3,11.69-5,18.51-.37,5.39,1.79,7.18A10.36,10.36,0,0,0,3326.21,516.72Z"/><path class="cls-2" d="M3621.15,541.86c-2.39,0-4.85-1.31-7.36-4a35.25,35.25,0,0,1-6.47-9.88,27.26,27.26,0,0,1-2.69-11.31q0-5.4,2.69-20.12t6.65-29.82q2.87-9.33,1.79-10.78t-9.7,3.95a79.54,79.54,0,0,0-9,5.21,36.75,36.75,0,0,0-6.82,5.93q-1.8,1.44-5.39,4.67a93.22,93.22,0,0,1-7.55,6.11q-4.67,3.6-11.85,10.06t-14.19,12.93q-7,6.47-10.6,10.06a7,7,0,0,1-2.16,2.51,6.32,6.32,0,0,1-3.23,1.26,9.18,9.18,0,0,1-3.95-.54,16,16,0,0,1-7.37-4.67,11.66,11.66,0,0,1-3.41-8.26q0-3.59,2.88-12.39t7.72-21.38q4.85-12.57,11.32-26.58a17.94,17.94,0,0,0,1.79-4.5c.48-1.79.9-3.77,1.26-5.92a37.18,37.18,0,0,0,.54-6.11,14.3,14.3,0,0,1,.54-3.77,25.12,25.12,0,0,1,1.44-3.95,9.54,9.54,0,0,1,1.61-2.7c1-1.91,2.63-2.45,5-1.61a12.07,12.07,0,0,1,6.11,5.2,17.15,17.15,0,0,1,5.57,12.58q.16,7.55-3.78,18.68a34.28,34.28,0,0,0-2.33,4.85c-.6,1.56-1.14,2.87-1.62,3.95s-1,2.22-1.43,3.41c.95,0,3.11-1.07,6.46-3.23s7.3-4.55,11.86-7.18q5.38-4,9.52-7.37t7-5.39c1.92-1.31,3.11-2,3.6-2a8.49,8.49,0,0,0,3.59-1.08,13.64,13.64,0,0,0,3.59-2.52,6.26,6.26,0,0,1,3.23-1.79,7.16,7.16,0,0,0,4.31-1.8c1.92-1.44,4.43-1.85,7.55-1.26a21.39,21.39,0,0,1,8.62,3.78q3.95,2.88,3.95,6.46a5,5,0,0,0,1.8,3.24q2.86,0,3.77,9a39.86,39.86,0,0,1-2,17.24,52.71,52.71,0,0,1-2,12.93c-1.32,5-2.46,9.83-3.41,14.37a108.25,108.25,0,0,0-4,15.81,38,38,0,0,0-.35,11.5,19.7,19.7,0,0,0,2.51,7.54,5.79,5.79,0,0,1,0,5.57C3625.94,540.85,3624,541.86,3621.15,541.86Z"/></g></g></svg>