<svg xmlns="http://www.w3.org/2000/svg" viewBox="0 0 1074.41 1074.41"><defs><style>.cls-1{fill:#0b2238;}.cls-2{fill:#fff;}</style></defs><title>Fichier 18</title><g id="Calque_2" data-name="Calque 2"><g id="Calque_1-2" data-name="Calque 1"><rect class="cls-1" x="86.41" y="104.11" width="888" height="861"/><rect class="cls-2" x="433.83" y="752.21" width="212.96" height="52.6" rx="2.18"/><rect class="cls-2" x="487.06" y="645.53" width="106.25" height="52.68" rx="2.18"/><rect class="cls-2" x="487.21" y="858.97" width="105.88" height="52.9" rx="2.18"/><path class="cls-2" d="M836.93,0H237.48C106.32,0,0,106.32,0,237.48V836.93c0,131.15,106.32,237.48,237.48,237.48H836.93c131.15,0,237.48-106.33,237.48-237.48V237.48C1074.41,106.32,968.08,0,836.93,0ZM540,965.34C304.3,965,113.55,774.28,113.23,538.6,112.91,306,299.86,116.15,531.67,111.54c241.68-4.8,440.18,193.72,435.35,435.4C962.39,778.73,772.56,965.65,540,965.34Z"/><path class="cls-2" d="M751.46,230.58l-3.07.76-23.84,41.25a2.21,2.21,0,0,1-3,.81L679,248.9l-.8-3c8.41-14.63,16.6-28.89,24.76-43.07a8.7,8.7,0,0,0-1.2-1A361.6,361.6,0,0,0,596.26,169.1c-3.66-.56-5.33.66-6.91,3.85Q566.54,219,543.43,265c-.42.85-.87,1.69-1.35,2.59l-3.82,0c-.43-.76-.82-1.48-1.18-2.2-15.26-30.51-30.63-61-45.64-91.59-2.17-4.44-4.61-5.22-9-4.52a369.9,369.9,0,0,0-78.54,21.35c-8.24,3.26-16.28,7-24.57,10.67a2.2,2.2,0,0,0-1,3.11l23.87,41.49-.8,3L358.78,273.4l-3-.81c-8-13.83-15.9-27.52-23.9-41.36l-3.17-.7c-37.93,26.81-70,58.54-96.35,96.47l.71,3.16L274.35,354l.8,3-24.51,42.59-3,.8-41.36-23.8-3.09,1a374.44,374.44,0,0,0-36.59,158.78,2.19,2.19,0,0,0,2.18,2.21H484.33a2.17,2.17,0,0,1,2.16,2c3.55,35,30.65,51.13,52.92,51.22,12.3,0,23.51-3.46,33.22-11.12,12.94-10.22,19.79-23.63,21-40.27a2.18,2.18,0,0,1,2.16-2.05H911.58a2.2,2.2,0,0,0,2.19-2.22,375.16,375.16,0,0,0-36.65-158.52,2.2,2.2,0,0,0-3.09-1l-41.37,23.78-3-.81L805.2,357c.31-1.16.49-1.83.81-3l41.18-23.79a2.18,2.18,0,0,0,.77-3C829.05,296.82,783.87,251.57,751.46,230.58Zm-158.28,254H486.92V432.06H593.18ZM646.66,378H433.86V325.3h212.8Z"/></g></g></svg>